# xmcd
# 
# Track frame offsets:
#     150
#     14507
#     28447
#     41934
#     56221
#     66631
#     79601
#     97266
#     110946
#     129763
#     144725
#     161959
#     178096
#     192552
#     194990
# 
# Disc length: 2754
# 
# Revision: 0
# Processed by: cddbd v1.5.2PL0 Copyright (c) Steve Scherf et al.
# Submitted via: fre:ac v1.0.31
# 
DISCID=fe0ac00f
DTITLE=Don Henry and Craig Carothers - 2FBYCR
DYEAR=2013
DGENRE=Country
TTITLE0=BFD
TTITLE1=Not So Bad
TTITLE2=What Else Could I Do?
TTITLE3=Sweet Jasmine
TTITLE4=Mama's Little Brother
TTITLE5=Rhymes With Moon
TTITLE6=Men In Cars
TTITLE7=You're the Only One
TTITLE8=I Like to Watch
TTITLE9=Blue Movies
TTITLE10=All of This for That
TTITLE11=All My Luck
TTITLE12=2FBYCR
TTITLE13=Bonus 1
TTITLE14=Bonus 2
EXTD=
EXTT0=
EXTT1=
EXTT2=
EXTT3=
EXTT4=
EXTT5=
EXTT6=
EXTT7=
EXTT8=
EXTT9=
EXTT10=
EXTT11=
EXTT12=
EXTT13=
EXTT14=
PLAYORDER=
